<?xml version="1.0" standalone="no"?>
<!DOCTYPE svg PUBLIC "-//W3C//DTD SVG 20010904//EN"
 "http://www.w3.org/TR/2001/REC-SVG-20010904/DTD/svg10.dtd">
<svg version="1.0" xmlns="http://www.w3.org/2000/svg"
 width="743.000000pt" height="742.000000pt" viewBox="0 0 743.000000 742.000000"
 preserveAspectRatio="xMidYMid meet">

<g transform="translate(0.000000,742.000000) scale(0.100000,-0.100000)"
fill="#000000" stroke="none">
<path d="M2218 5192 l5 -185 -254 6 c-140 4 -273 10 -296 13 l-43 7 0 -109 0
-109 113 6 c61 4 194 9 295 12 l182 5 0 -175 0 -176 -372 7 c-205 3 -401 9
-435 12 l-63 6 0 -105 c0 -58 3 -108 8 -110 4 -2 61 0 127 4 66 3 309 10 540
13 l420 7 -40 -37 c-22 -20 -84 -70 -139 -111 l-98 -75 -62 6 c-33 4 -71 10
-83 13 -22 5 -23 3 -23 -65 l0 -70 -97 -58 c-137 -81 -369 -197 -493 -245 -58
-23 -108 -44 -112 -47 -3 -4 30 -45 74 -91 l80 -85 127 63 c69 35 190 101 267
147 78 46 144 84 148 84 3 0 6 -102 6 -227 0 -126 5 -246 10 -267 29 -129 188
-163 710 -153 162 3 327 11 365 16 162 25 267 88 323 195 29 56 73 158 69 161
-1 1 -31 12 -67 24 -36 13 -90 40 -122 61 l-56 37 -13 -46 c-58 -214 -168
-261 -621 -261 -247 0 -318 9 -355 46 -21 21 -23 31 -23 131 l0 109 433 113
c237 63 480 123 540 135 59 11 107 26 107 32 0 6 -22 36 -49 67 -27 31 -66 83
-87 117 l-37 60 -41 -25 c-179 -111 -407 -201 -716 -285 -63 -17 -123 -33
-132 -36 -16 -5 -18 3 -18 74 l0 80 108 80 c98 74 204 160 347 286 l56 49 423
-11 c232 -6 430 -14 439 -18 15 -5 17 5 17 106 l0 113 -72 -7 c-40 -3 -201 -9
-358 -12 l-285 -6 25 28 c14 16 50 56 81 89 30 33 107 125 170 205 119 149
190 223 228 235 40 12 21 35 -66 78 -49 24 -107 55 -130 70 -48 30 -39 37
-113 -88 -109 -183 -259 -388 -388 -532 l-74 -83 -94 0 -94 0 0 172 0 171 185
-7 c102 -3 191 -7 198 -9 9 -1 12 26 12 103 l0 105 -35 -1 c-19 -1 -108 -5
-197 -9 l-163 -8 0 118 0 118 41 38 c23 21 38 43 34 48 -3 6 -27 11 -53 11
-26 1 -92 9 -148 18 l-101 18 5 -184z"/>
<path d="M4120 5194 l-79 -106 118 -79 c65 -44 151 -109 190 -145 39 -36 75
-63 80 -60 10 7 161 202 161 209 0 6 -111 88 -282 210 l-108 76 -80 -105z"/>
<path d="M4672 5098 l3 -113 25 2 c14 0 136 4 273 9 l247 7 0 -348 0 -348
-218 6 c-121 4 -240 10 -265 13 l-47 7 0 -111 0 -111 265 6 265 6 0 -373 0
-373 -360 5 -360 5 0 -109 0 -109 133 8 c170 10 1202 10 1375 0 l132 -8 0 109
0 109 -345 -5 -345 -5 0 373 0 373 275 -6 275 -6 0 111 0 111 -46 -7 c-25 -3
-149 -9 -275 -13 l-229 -6 0 348 0 348 283 -7 c155 -3 291 -8 302 -9 19 -2 20
5 23 111 l3 112 -98 -7 c-54 -5 -323 -8 -598 -8 -275 0 -544 3 -598 8 l-98 7
3 -112z"/>
<path d="M3993 4658 c-17 -22 -103 -185 -103 -195 0 -6 21 -18 48 -28 86 -32
256 -124 322 -174 l65 -50 61 122 61 121 -220 108 c-120 59 -221 108 -222 108
-1 0 -7 -6 -12 -12z"/>
<path d="M4200 3898 c-42 -186 -146 -469 -234 -634 -19 -37 -35 -68 -33 -69 9
-7 277 -133 277 -130 0 58 104 469 171 673 28 85 49 155 47 157 -1 2 -28 13
-58 25 -29 12 -74 34 -98 51 -23 16 -44 29 -46 29 -2 0 -13 -46 -26 -102z"/>
<path d="M3080 2645 l0 -85 -40 0 c-36 0 -40 -2 -40 -25 0 -22 4 -25 39 -25
l40 0 3 -186 c3 -211 5 -214 85 -214 41 0 43 1 43 30 0 27 -3 30 -30 30 l-30
0 0 170 0 170 40 0 c36 0 40 3 40 25 0 23 -4 25 -40 25 l-40 0 0 85 0 85 -35
0 -35 0 0 -85z"/>
<path d="M3310 2425 l0 -305 30 0 30 0 0 110 c0 166 16 218 80 263 37 26 111
23 138 -5 35 -39 42 -74 42 -224 l0 -144 31 0 31 0 -4 173 c-3 194 -11 218
-78 256 -60 33 -127 29 -189 -13 l-51 -35 0 115 0 114 -30 0 -30 0 0 -305z"/>
<path d="M4538 2719 c-21 -12 -24 -59 -6 -77 20 -20 56 -14 74 13 15 23 15 27
0 50 -17 26 -40 31 -68 14z"/>
<path d="M5240 2425 l0 -305 30 0 c28 0 30 3 30 37 l0 37 28 -26 c68 -65 153
-76 240 -32 52 26 100 81 116 132 12 37 8 127 -7 163 -21 51 -66 100 -112 120
-75 35 -186 19 -242 -33 l-23 -21 0 116 0 117 -30 0 -30 0 0 -305z m311 62
c93 -63 104 -193 23 -269 -57 -53 -124 -62 -189 -25 -120 68 -111 253 15 309
36 16 117 8 151 -15z"/>
<path d="M1914 2551 c-78 -35 -134 -127 -134 -217 0 -48 38 -130 76 -166 109
-102 285 -69 357 67 45 84 23 208 -50 277 -61 58 -169 75 -249 39z m189 -74
c68 -52 89 -161 45 -227 -39 -57 -72 -75 -138 -75 -66 0 -99 18 -137 75 -39
56 -29 155 20 209 53 57 148 65 210 18z"/>
<path d="M2475 2554 c-16 -8 -40 -25 -52 -36 l-23 -21 0 31 c0 30 -2 32 -35
32 l-35 0 0 -220 0 -220 35 0 35 0 0 138 c0 114 3 143 19 172 25 48 75 80 123
80 91 0 106 -32 115 -235 l6 -155 30 0 29 0 -4 163 c-4 183 -15 223 -77 264
-41 28 -121 31 -166 7z"/>
<path d="M3915 2551 c-80 -37 -128 -116 -128 -211 0 -134 93 -230 223 -230 32
0 72 8 95 19 37 17 115 91 115 109 0 5 -11 14 -25 20 -22 10 -27 9 -41 -14
-26 -39 -94 -74 -146 -74 -72 0 -140 57 -154 128 l-6 32 196 0 197 0 -7 38
c-23 128 -105 202 -224 202 -32 0 -71 -8 -95 -19z m164 -56 c34 -17 81 -70 81
-91 0 -11 -27 -14 -150 -14 -82 0 -150 3 -150 8 0 19 43 74 72 92 39 24 107
26 147 5z"/>
<path d="M4814 2551 c-78 -35 -134 -127 -134 -217 0 -48 38 -130 76 -166 109
-102 285 -69 357 67 45 84 23 208 -50 277 -61 58 -169 75 -249 39z m189 -74
c68 -52 89 -161 45 -227 -39 -57 -72 -75 -138 -75 -66 0 -99 18 -138 76 -20
29 -23 44 -20 95 4 71 38 126 92 150 46 21 118 12 159 -19z"/>
<path d="M4528 2303 l-3 -258 -22 3 c-20 3 -23 -1 -23 -27 0 -27 4 -31 36 -37
29 -5 40 -2 57 15 21 21 22 30 25 291 l3 270 -35 0 -36 0 -2 -257z"/>
</g>
</svg>
